<?xml version="1.0" encoding="UTF-8" standalone="no"?>
<svg width="20px" height="20px" viewBox="0 0 20 20" version="1.1" xmlns="http://www.w3.org/2000/svg" xmlns:xlink="http://www.w3.org/1999/xlink">
    <!-- Generator: Sketch 41.2 (35397) - http://www.bohemiancoding.com/sketch -->
    <title>Shape</title>
    <desc>Created with Sketch.</desc>
    <defs></defs>
    <g id="Page-1" stroke="none" stroke-width="1" fill="none" fill-rule="evenodd">
        <g id="Homescreen-Copy" transform="translate(-346.000000, -337.000000)" fill="#F65E14">
            <path d="M350.580326,349.238496 L349.550033,355.238394 C349.503566,355.512007 349.616741,355.790393 349.841309,355.953794 C350.065279,356.116611 350.365287,356.138448 350.610895,356.009391 L356.000049,353.176027 L361.38922,356.009391 C361.495427,356.065372 361.611993,356.092994 361.728543,356.092994 C361.880036,356.092994 362.031528,356.045914 362.158805,355.953794 C362.383374,355.790393 362.495949,355.512007 362.449283,355.238394 L361.419589,349.238097 L365.780046,344.988835 C365.978005,344.79485 366.050069,344.503773 365.964501,344.239889 C365.879118,343.975821 365.64881,343.781621 365.374583,343.742306 L359.349872,342.866298 L356.655678,337.407059 C356.532575,337.158076 356.277622,337 356.000049,337 C355.722477,337 355.46714,337.158076 355.344436,337.407059 L352.650442,342.866697 L346.625316,343.742306 C346.35092,343.781621 346.120981,343.975821 346.035613,344.239889 C345.949831,344.503773 346.021909,344.79485 346.220666,344.988835 L350.580326,349.238496 Z" id="Shape"></path>
        </g>
    </g>
</svg>