<?xml version="1.0" encoding="UTF-8" standalone="no"?>
<svg width="16px" height="16px" viewBox="0 0 16 16" version="1.1" xmlns="http://www.w3.org/2000/svg" xmlns:xlink="http://www.w3.org/1999/xlink">
    <!-- Generator: Sketch 41.2 (35397) - http://www.bohemiancoding.com/sketch -->
    <title>Shape</title>
    <desc>Created with Sketch.</desc>
    <defs></defs>
    <g id="Page-1" stroke="none" stroke-width="1" fill="none" fill-rule="evenodd">
        <g id="Homescreen" transform="translate(-1331.000000, -158.000000)" fill="#272938">
            <path d="M1346.68114,172.142834 L1343.47063,168.932327 C1345.42709,166.23809 1345.19153,162.447136 1342.76236,160.017967 C1341.41693,158.672715 1339.65354,158 1337.89015,158 C1336.12677,158 1334.36338,158.672715 1333.01795,160.018145 C1330.32709,162.709004 1330.32709,167.071695 1333.01795,169.762554 C1334.36338,171.107984 1336.12677,171.780699 1337.89015,171.780699 C1339.31043,171.780699 1340.73017,171.343541 1341.93213,170.470825 L1345.14264,173.681332 C1345.35491,173.893777 1345.63349,174.000089 1345.91189,174.000089 C1346.19029,174.000089 1346.46887,173.893777 1346.68114,173.681332 C1347.10603,173.256618 1347.10603,172.567725 1346.68114,172.142834 Z M1334.09493,168.68557 C1332.0023,166.592937 1332.0023,163.187762 1334.09493,161.095128 C1335.10863,160.081434 1336.45655,159.523031 1337.89015,159.523031 C1339.32376,159.523031 1340.67168,160.081256 1341.68538,161.095128 C1343.77801,163.187762 1343.77801,166.592937 1341.68538,168.68557 C1340.67168,169.699265 1339.32376,170.257668 1337.89015,170.257668 C1336.45655,170.257668 1335.10881,169.699265 1334.09493,168.68557 Z" id="Shape"></path>
        </g>
    </g>
</svg>