<?xml version="1.0" encoding="UTF-8" standalone="no"?>
<svg width="21px" height="4px" viewBox="0 0 21 4" version="1.1" xmlns="http://www.w3.org/2000/svg" xmlns:xlink="http://www.w3.org/1999/xlink">
    <!-- Generator: Sketch 41.2 (35397) - http://www.bohemiancoding.com/sketch -->
    <title>Combined Shape</title>
    <desc>Created with Sketch.</desc>
    <defs></defs>
    <g id="Page-1" stroke="none" stroke-width="1" fill="none" fill-rule="evenodd">
        <path d="M2.5,4 C3.6045695,4 4.5,3.1045695 4.5,2 C4.5,0.8954305 3.6045695,0 2.5,0 C1.3954305,0 0.5,0.8954305 0.5,2 C0.5,3.1045695 1.3954305,4 2.5,4 Z M10.5,4 C11.6045695,4 12.5,3.1045695 12.5,2 C12.5,0.8954305 11.6045695,0 10.5,0 C9.3954305,0 8.5,0.8954305 8.5,2 C8.5,3.1045695 9.3954305,4 10.5,4 Z M18.5,4 C19.6045695,4 20.5,3.1045695 20.5,2 C20.5,0.8954305 19.6045695,0 18.5,0 C17.3954305,0 16.5,0.8954305 16.5,2 C16.5,3.1045695 17.3954305,4 18.5,4 Z" id="Combined-Shape" fill="#FFFFFF"></path>
    </g>
</svg>