<?xml version="1.0" encoding="UTF-8" standalone="no"?>
<svg width="15px" height="16px" viewBox="0 0 15 16" version="1.1" xmlns="http://www.w3.org/2000/svg" xmlns:xlink="http://www.w3.org/1999/xlink">
    <!-- Generator: Sketch 41.2 (35397) - http://www.bohemiancoding.com/sketch -->
    <title>Group</title>
    <desc>Created with Sketch.</desc>
    <defs></defs>
    <g id="Page-1" stroke="none" stroke-width="1" fill="none" fill-rule="evenodd">
        <g id="Group" fill="#FFFFFF">
            <path d="M14.3571429,2.37837838 L10.2428571,2.37837838 C10.0285714,1.05945946 8.89285714,0.0432432432 7.52142857,0.0432432432 L7.47857143,0.0432432432 C6.10714286,0.0432432432 4.97142857,1.05945946 4.75714286,2.37837838 L0.642857143,2.37837838 C0.278571429,2.37837838 0,2.65945946 0,3.02702703 C0,3.39459459 0.278571429,3.67567568 0.642857143,3.67567568 L1.58571429,3.67567568 L1.58571429,13.0594595 C1.58571429,14.6162162 2.82857143,15.8702703 4.37142857,15.8702703 L10.6071429,15.8702703 C12.15,15.8702703 13.3928571,14.6162162 13.3928571,13.0594595 L13.3928571,3.67567568 L14.3571429,3.67567568 C14.7214286,3.67567568 15,3.39459459 15,3.02702703 C15,2.65945946 14.7214286,2.37837838 14.3571429,2.37837838 Z M7.47815101,1.32017883 L7.52268982,1.32017883 C8.21304125,1.32017883 8.79204568,1.76957935 8.97020089,2.39874009 L6.00837054,2.39874009 C6.20879515,1.76957935 6.78779958,1.32017883 7.47815101,1.32017883 Z M12.5657144,13.4315784 C12.5657144,14.354201 11.8388956,15.0875677 10.9245107,15.0875677 L4.07834668,15.0875677 C3.16396175,15.0875677 2.43714297,14.354201 2.43714297,13.4315784 L2.43714297,3.16444458 L12.5422686,3.16444458 L12.5422686,13.4315784 L12.5657144,13.4315784 Z" id="Shape"></path>
            <path d="M5.55,12.4324324 C5.91428571,12.4324324 6.19285714,12.1513514 6.19285714,11.7837838 L6.19285714,6.50810811 C6.19285714,6.14054054 5.91428571,5.85945946 5.55,5.85945946 C5.18571429,5.85945946 4.90714286,6.14054054 4.90714286,6.50810811 L4.90714286,11.7837838 C4.90714286,12.1513514 5.18571429,12.4324324 5.55,12.4324324 Z" id="Shape"></path>
            <path d="M9.45,12.4324324 C9.81428571,12.4324324 10.0928571,12.1513514 10.0928571,11.7837838 L10.0928571,6.50810811 C10.0928571,6.14054054 9.81428571,5.85945946 9.45,5.85945946 C9.08571429,5.85945946 8.80714286,6.14054054 8.80714286,6.50810811 L8.80714286,11.7837838 C8.80714286,12.1513514 9.10714286,12.4324324 9.45,12.4324324 Z" id="Shape"></path>
        </g>
    </g>
</svg>