<?xml version="1.0" encoding="UTF-8" standalone="no"?>
<svg width="15px" height="15px" viewBox="0 0 15 15" version="1.1" xmlns="http://www.w3.org/2000/svg" xmlns:xlink="http://www.w3.org/1999/xlink">
    <!-- Generator: Sketch 41.2 (35397) - http://www.bohemiancoding.com/sketch -->
    <title>Group</title>
    <desc>Created with Sketch.</desc>
    <defs></defs>
    <g id="Page-1" stroke="none" stroke-width="1" fill="none" fill-rule="evenodd">
        <g id="Group" fill="#FFFFFF">
            <rect id="Rectangle-path" transform="translate(11.772104, 11.783317) rotate(-45.000000) translate(-11.772104, -11.783317) " x="11.1471035" y="8.44998327" width="1.25" height="6.66666667" rx="0.625"></rect>
            <path d="M5.83333333,11.6666667 C9.05499433,11.6666667 11.6666667,9.05499433 11.6666667,5.83333333 C11.6666667,2.61167229 9.05499433,6.96331881e-13 5.83333333,6.96331881e-13 C2.61167229,6.96331881e-13 -6.87450097e-13,2.61167229 -6.87450097e-13,5.83333333 C-6.87450097e-13,9.05499433 2.61167229,11.6666667 5.83333333,11.6666667 Z M5.83333333,10.4166667 C8.36463842,10.4166667 10.4166667,8.36463842 10.4166667,5.83333333 C10.4166667,3.30202823 8.36463842,1.25 5.83333333,1.25 C3.30202823,1.25 1.25,3.30202823 1.25,5.83333333 C1.25,8.36463842 3.30202823,10.4166667 5.83333333,10.4166667 Z" id="Shape" transform="translate(5.833333, 5.833333) rotate(-90.000000) translate(-5.833333, -5.833333) "></path>
        </g>
    </g>
</svg>