<?xml version="1.0" encoding="UTF-8" standalone="no"?>
<svg width="16px" height="14px" viewBox="0 0 16 14" version="1.1" xmlns="http://www.w3.org/2000/svg" xmlns:xlink="http://www.w3.org/1999/xlink">
    <!-- Generator: Sketch 41.2 (35397) - http://www.bohemiancoding.com/sketch -->
    <title>Group</title>
    <desc>Created with Sketch.</desc>
    <defs></defs>
    <g id="Page-1" stroke="none" stroke-width="1" fill="none" fill-rule="evenodd">
        <g id="Group" fill="#FFFFFF">
            <path d="M7.39673469,4.45357303 C8.21322449,4.45357303 8.87771429,3.81350562 8.87771429,3.02667416 C8.87771429,2.2398427 8.21322449,1.59977528 7.39673469,1.59977528 C6.58008163,1.59977528 5.91559184,2.24 5.91559184,3.02667416 C5.91559184,3.81334831 6.58008163,4.45357303 7.39673469,4.45357303 Z M7.39673469,2.4545618 C7.7242449,2.4545618 7.99085714,2.7112809 7.99085714,3.02683146 C7.99085714,3.34238202 7.7242449,3.59910112 7.39673469,3.59910112 C7.06922449,3.59910112 6.80244898,3.34238202 6.80244898,3.02683146 C6.80244898,2.7112809 7.06906122,2.4545618 7.39673469,2.4545618 Z" id="Shape"></path>
            <path d="M8.87771429,11.1355056 C8.87771429,10.3486742 8.21322449,9.70876404 7.39673469,9.70876404 C6.58008163,9.70876404 5.91559184,10.3486742 5.91559184,11.1355056 C5.91559184,11.9221798 6.58008163,12.5622472 7.39673469,12.5622472 C8.21322449,12.5622472 8.87771429,11.9221798 8.87771429,11.1355056 Z M6.80244898,11.1355056 C6.80244898,10.8197978 7.06906122,10.5630787 7.39673469,10.5630787 C7.72440816,10.5630787 7.99085714,10.8197978 7.99085714,11.1355056 C7.99085714,11.4510562 7.7242449,11.7077753 7.39673469,11.7077753 C7.06922449,11.7077753 6.80244898,11.4510562 6.80244898,11.1355056 Z" id="Shape"></path>
            <path d="M10.3002449,10.3442697 C10.5253878,10.4694831 10.780898,10.5355506 11.0395102,10.5355506 C11.5675102,10.5355506 12.0595918,10.2621573 12.3232653,9.82186517 C12.5211429,9.4918427 12.573551,9.10739326 12.4711837,8.73914607 C12.3689796,8.37089888 12.1239184,8.06321348 11.7812245,7.8725618 C11.5562449,7.74734831 11.3005714,7.6812809 11.0419592,7.6812809 C10.5139592,7.6812809 10.0222041,7.95467416 9.75836735,8.39480899 C9.35020408,9.0765618 9.59314286,9.95101124 10.3002449,10.3442697 Z M10.5265306,8.82204494 C10.6323265,8.64555056 10.8298776,8.53591011 11.0421224,8.53591011 C11.1453061,8.53591011 11.2475102,8.56249438 11.3379592,8.61267416 C11.4754286,8.68896629 11.5737143,8.81260674 11.6148571,8.96031461 C11.6558367,9.10786517 11.6346122,9.26217978 11.5554286,9.39462921 C11.4496327,9.5711236 11.2519184,9.68092135 11.0396735,9.68092135 C10.9364898,9.68092135 10.8341224,9.65433708 10.7438367,9.6041573 C10.4600816,9.44653933 10.3626122,9.09559551 10.5265306,8.82204494 Z" id="Shape"></path>
            <path d="M3.01191837,6.28977528 C3.23673469,6.41498876 3.49240816,6.48105618 3.75118367,6.48105618 C4.27902041,6.48105618 4.77093878,6.20766292 5.03477551,5.76737079 C5.44293878,5.08608989 5.2,4.21164045 4.49289796,3.81806742 C4.2677551,3.69285393 4.01191837,3.62678652 3.75314286,3.62678652 C3.22530612,3.62678652 2.73355102,3.90017978 2.46971429,4.34031461 C2.27183673,4.67065169 2.21942857,5.05510112 2.32163265,5.42319101 C2.42416327,5.79159551 2.66938776,6.0992809 3.01191837,6.28977528 Z M3.23804082,4.76770787 C3.34383673,4.59105618 3.54122449,4.48141573 3.75330612,4.48141573 C3.85665306,4.48141573 3.95918367,4.508 4.04946939,4.55817978 C4.33306122,4.71579775 4.43053061,5.06674157 4.26677551,5.34013483 C4.16097959,5.51678652 3.96326531,5.62658427 3.75118367,5.62658427 C3.648,5.62658427 3.54563265,5.6001573 3.45534694,5.54982022 C3.31771429,5.47337079 3.21959184,5.34988764 3.17844898,5.20233708 C3.13746939,5.05462921 3.15869388,4.9001573 3.23804082,4.76770787 Z" id="Shape"></path>
            <path d="M3.75134694,7.68096629 C3.49257143,7.68096629 3.23689796,7.74703371 3.01208163,7.87224719 C2.66938776,8.06289888 2.42432653,8.37058427 2.32212245,8.73867416 C2.2197551,9.10692135 2.27216327,9.49137079 2.47004082,9.82155056 C2.73387755,10.2616854 3.22563265,10.5350787 3.75363265,10.5350787 C4.01240816,10.5350787 4.26808163,10.4688539 4.49322449,10.3437978 C4.8357551,10.1533034 5.08081633,9.84546067 5.18318367,9.47737079 C5.28538776,9.1091236 5.23281633,8.72467416 5.03510204,8.39465169 C4.77110204,7.95435955 4.27918367,7.68096629 3.75134694,7.68096629 Z M4.32620408,9.25620225 C4.28522449,9.40391011 4.18693878,9.52739326 4.04963265,9.60368539 C3.95918367,9.65386517 3.85681633,9.68044944 3.75363265,9.68044944 C3.54138776,9.68044944 3.344,9.57080899 3.23820408,9.39431461 C3.15885714,9.26170787 3.13763265,9.10755056 3.17877551,8.9598427 C3.21991837,8.81213483 3.31820408,8.68865169 3.45567347,8.61220225 C3.54612245,8.56202247 3.64832653,8.53559551 3.7515102,8.53559551 C3.9637551,8.53559551 4.16114286,8.64523596 4.26710204,8.82188764 C4.34612245,8.95433708 4.36734694,9.10849438 4.32620408,9.25620225 Z" id="Shape"></path>
            <path d="M11.0421224,6.48058427 C11.3007347,6.48058427 11.5564082,6.41451685 11.7813878,6.28930337 C12.1240816,6.09865169 12.3691429,5.7911236 12.4715102,5.4228764 C12.5738776,5.05462921 12.5213061,4.67017978 12.3234286,4.3401573 C12.0597551,3.89986517 11.5678367,3.62647191 11.0398367,3.62647191 C10.7812245,3.62647191 10.5257143,3.69253933 10.3004082,3.81775281 C9.59330612,4.21101124 9.35036735,5.08546067 9.75869388,5.76705618 C10.0223673,6.20719101 10.5139592,6.48058427 11.0421224,6.48058427 Z M10.7438367,4.55802247 C10.8342857,4.5078427 10.9366531,4.48125843 11.0396735,4.48125843 C11.2519184,4.48125843 11.4494694,4.59089888 11.5552653,4.76770787 C11.634449,4.9 11.6556735,5.05431461 11.6146939,5.20202247 C11.573551,5.34973034 11.4752653,5.47305618 11.3377959,5.54950562 C11.2473469,5.59968539 11.1451429,5.62626966 11.0419592,5.62626966 C10.8297143,5.62626966 10.6321633,5.51662921 10.5263673,5.34013483 C10.3626122,5.06642697 10.4600816,4.71564045 10.7438367,4.55802247 Z" id="Shape"></path>
            <ellipse id="Oval" cx="7.39640816" cy="7.01919101" rx="1.03755102" ry="0.999662921"></ellipse>
            <path d="M15.405551,13.1453708 L10.8667755,13.1453708 C13.1146122,11.9586742 14.6422857,9.65779775 14.6422857,7.01919101 C14.6422857,3.16982022 11.3918367,0.0382247191 7.39673469,0.0382247191 C3.40146939,0.0382247191 0.151020408,3.16982022 0.151020408,7.01919101 C0.150857143,10.8684045 3.40130612,14 7.39673469,14 L15.4057143,14 C15.6506122,14 15.8491429,13.8087191 15.8491429,13.572764 C15.8489796,13.3366517 15.650449,13.1453708 15.405551,13.1453708 Z M1.03787755,7.01919101 C1.03787755,3.64094382 3.89044898,0.892696629 7.39673469,0.892696629 C10.9028571,0.892696629 13.7552653,3.64094382 13.7552653,7.01919101 C13.7552653,10.3972809 10.9026939,13.1453708 7.39673469,13.1453708 C3.89044898,13.1453708 1.03787755,10.3972809 1.03787755,7.01919101 Z" id="Shape"></path>
        </g>
    </g>
</svg>