<?xml version="1.0" encoding="UTF-8" standalone="no"?>
<svg width="16px" height="15px" viewBox="0 0 16 15" version="1.1" xmlns="http://www.w3.org/2000/svg" xmlns:xlink="http://www.w3.org/1999/xlink">
    <!-- Generator: Sketch 41.2 (35397) - http://www.bohemiancoding.com/sketch -->
    <title>Group</title>
    <desc>Created with Sketch.</desc>
    <defs></defs>
    <g id="Page-1" stroke="none" stroke-width="1" fill="none" fill-rule="evenodd">
        <g id="Group" fill="#FFFFFF">
            <path d="M2.272,7.11702128 L3.776,7.11702128 C3.92,7.11702128 4.032,7.00531915 4.032,6.86170213 L4.032,6.36702128 C4.032,6.22340426 3.92,6.11170213 3.776,6.11170213 L2.272,6.11170213 C2.128,6.11170213 2.016,6.22340426 2.016,6.36702128 L2.016,6.86170213 C2.032,7.00531915 2.144,7.11702128 2.272,7.11702128 Z" id="Shape"></path>
            <path d="M4.768,7.11702128 L8.272,7.11702128 C8.416,7.11702128 8.528,7.00531915 8.528,6.86170213 L8.528,6.36702128 C8.528,6.22340426 8.416,6.11170213 8.272,6.11170213 L4.768,6.11170213 C4.624,6.11170213 4.512,6.22340426 4.512,6.36702128 L4.512,6.86170213 C4.528,7.00531915 4.64,7.11702128 4.768,7.11702128 Z" id="Shape"></path>
            <path d="M13.776,6.11170213 L9.28,6.11170213 C9.136,6.11170213 9.024,6.22340426 9.024,6.36702128 L9.024,6.86170213 C9.024,7.00531915 9.136,7.11702128 9.28,7.11702128 L13.776,7.11702128 C13.92,7.11702128 14.032,7.00531915 14.032,6.86170213 L14.032,6.36702128 C14.032,6.2393617 13.904,6.11170213 13.776,6.11170213 Z" id="Shape"></path>
            <path d="M5.776,8.10638298 L2.272,8.10638298 C2.128,8.10638298 2.016,8.21808511 2.016,8.36170213 L2.016,8.85638298 C2.016,9 2.128,9.11170213 2.272,9.11170213 L5.776,9.11170213 C5.92,9.11170213 6.032,9 6.032,8.85638298 L6.032,8.36170213 C6.032,8.23404255 5.904,8.10638298 5.776,8.10638298 Z" id="Shape"></path>
            <path d="M10.272,8.10638298 L6.768,8.10638298 C6.624,8.10638298 6.512,8.21808511 6.512,8.36170213 L6.512,8.85638298 C6.512,9 6.624,9.11170213 6.768,9.11170213 L10.272,9.11170213 C10.416,9.11170213 10.528,9 10.528,8.85638298 L10.528,8.36170213 C10.528,8.23404255 10.416,8.10638298 10.272,8.10638298 Z" id="Shape"></path>
            <path d="M13.776,8.10638298 L11.28,8.10638298 C11.136,8.10638298 11.024,8.21808511 11.024,8.36170213 L11.024,8.85638298 C11.024,9 11.136,9.11170213 11.28,9.11170213 L13.776,9.11170213 C13.92,9.11170213 14.032,9 14.032,8.85638298 L14.032,8.36170213 C14.032,8.23404255 13.904,8.10638298 13.776,8.10638298 Z" id="Shape"></path>
            <path d="M14.752,0.127659574 L1.248,0.127659574 C0.56,0.127659574 0,0.70212766 0,1.38829787 L0,9.86170213 C0,10.5478723 0.56,11.106383 1.248,11.106383 L6,11.106383 L7.776,14.6489362 C7.84,14.7925532 7.968,14.856383 8.08,14.856383 C8.176,14.856383 8.272,14.8244681 8.352,14.7287234 L12,11.106383 L14.752,11.106383 C15.44,11.106383 16,10.5478723 16,9.86170213 L16,1.38829787 C16,0.70212766 15.44,0.127659574 14.752,0.127659574 Z M15.008,9.86170213 C15.008,10.0053191 14.896,10.1170213 14.752,10.1170213 L12.992,10.1170213 L11.584,10.1170213 L10.592,11.106383 L8.272,13.4042553 L7.12,11.106383 L6.624,10.1170213 L5.504,10.1170213 L1.248,10.1170213 C1.104,10.1170213 0.992,10.0053191 0.992,9.86170213 L0.992,1.38829787 C0.992,1.24468085 1.104,1.13297872 1.248,1.13297872 L14.752,1.13297872 C14.896,1.13297872 15.008,1.24468085 15.008,1.38829787 L15.008,9.86170213 Z" id="Shape"></path>
        </g>
    </g>
</svg>