<?xml version="1.0" encoding="UTF-8" standalone="no"?>
<svg width="164px" height="31px" viewBox="0 0 164 31" version="1.1" xmlns="http://www.w3.org/2000/svg" xmlns:xlink="http://www.w3.org/1999/xlink">
    <!-- Generator: Sketch 41.2 (35397) - http://www.bohemiancoding.com/sketch -->
    <title>logo</title>
    <desc>Created with Sketch.</desc>
    <defs>
        <radialGradient cx="23.254829%" cy="16.3007469%" fx="23.254829%" fy="16.3007469%" r="59.1924151%" id="radialGradient-1">
            <stop stop-color="#EA7911" offset="0%"></stop>
            <stop stop-color="#F54E09" offset="100%"></stop>
        </radialGradient>
    </defs>
    <g id="Page-1" stroke="none" stroke-width="1" fill="none" fill-rule="evenodd">
        <g id="Homescreen" transform="translate(-82.000000, -20.000000)">
            <g id="logo" transform="translate(82.000000, 20.000000)">
                <path d="M8.0291,8.76494 C10.0167,8.76494 11.4828,9.47498 12.4274,10.89507 C13.3917,12.31515 13.8738,14.3091 13.8738,16.8769 C13.8738,18.4721 13.6278,19.8922 13.1358,21.1372 C12.6635,22.3627 11.9551,23.3257 11.0105,24.026 C10.0856,24.7263 8.98354,25.0765 7.7044,25.0765 C6.05134,25.0765 4.74268,24.5123 3.7784,23.384 L3.7784,30.5914 L0,31 L0,9.20264 L3.3061,9.20264 L3.51273,11.09933 C4.10311,10.3212 4.79188,9.7376 5.57904,9.34854 C6.38589,8.95947 7.20258,8.76494 8.0291,8.76494 Z M6.64172,22.2168 C8.82611,22.2168 9.9183,20.4466 9.9183,16.9061 C9.9183,14.9997 9.66247,13.638 9.15081,12.8209 C8.65884,11.98445 7.91103,11.5662 6.90739,11.5662 C6.29733,11.5662 5.7168,11.76074 5.16578,12.1498 C4.63444,12.51941 4.17198,13.0252 3.7784,13.6671 L3.7784,20.6119 C4.50653,21.6819 5.46097,22.2168 6.64172,22.2168 Z" id="path0_fill" fill="#FFFFFF"></path>
                <path d="M21.2152,20.8746 C21.2152,21.3025 21.2841,21.6138 21.4219,21.8083 C21.5596,21.9834 21.7859,22.0709 22.1008,22.0709 C22.396,22.0709 22.6912,22.0223 22.9863,21.925 L23.7834,24.5512 C22.9371,24.9014 22.0417,25.0765 21.0971,25.0765 C19.9164,25.0765 19.0112,24.7458 18.3814,24.0843 C17.7517,23.4035 17.4368,22.4211 17.4368,21.1372 L17.4368,3.016518 L21.2152,2.608 L21.2152,20.8746 Z" id="path1_fill" fill="#FFFFFF"></path>
                <path d="M37.832,20.5536 C37.832,21.1566 37.9205,21.6041 38.0976,21.8959 C38.2944,22.1682 38.5995,22.3822 39.0127,22.5378 L38.2157,25.0181 C37.3302,24.9403 36.602,24.736 36.0313,24.4053 C35.4803,24.0552 35.0572,23.5105 34.762,22.7712 C34.2307,23.5494 33.5616,24.133 32.7547,24.522 C31.9676,24.8917 31.082,25.0765 30.0981,25.0765 C28.5434,25.0765 27.3135,24.6388 26.4082,23.7634 C25.503,22.888 25.0504,21.7402 25.0504,20.3201 C25.0504,18.6472 25.6604,17.373 26.8805,16.4976 C28.1203,15.6027 29.8816,15.1553 32.1644,15.1553 L34.1126,15.1553 L34.1126,14.2799 C34.1126,13.2878 33.8765,12.59722 33.4042,12.20816 C32.9515,11.79964 32.2136,11.59538 31.1903,11.59538 C30.0489,11.59538 28.6713,11.86773 27.0576,12.41242 L26.1721,9.87377 C28.1203,9.13455 30.0095,8.76494 31.8397,8.76494 C35.8345,8.76494 37.832,10.53518 37.832,14.0757 L37.832,20.5536 Z M31.1017,22.3627 C32.3808,22.3627 33.3845,21.7305 34.1126,20.466 L34.1126,17.3438 L32.5481,17.3438 C30.1079,17.3438 28.8878,18.2387 28.8878,20.0283 C28.8878,20.7676 29.0747,21.3414 29.4486,21.75 C29.8226,22.1585 30.3736,22.3627 31.1017,22.3627 Z" id="path2_fill" fill="#FFFFFF"></path>
                <path d="M49.6729,24.6971 C49.0432,26.6035 48.0887,28.082 46.8096,29.1324 C45.5305,30.2024 43.779,30.8249 41.5553,31 L41.1715,28.2862 C42.1948,28.1306 43.0115,27.9069 43.6216,27.6151 C44.2513,27.3428 44.7531,26.9731 45.127,26.5063 C45.5009,26.0394 45.8453,25.4169 46.1602,24.6388 L44.8614,24.6388 L39.9022,9.20264 L43.9168,9.20264 L47.3114,22.1585 L50.8537,9.20264 L54.7501,9.20264 L49.6729,24.6971 Z" id="path3_fill" fill="#FFFFFF"></path>
                <path d="M62.9035,8.76494 C63.9269,8.76494 64.8419,8.91084 65.6488,9.20264 C66.4753,9.49444 67.2526,9.95159 67.9808,10.57409 L66.2687,12.8501 C65.757,12.46105 65.2552,12.17898 64.7632,12.0039 C64.2712,11.80937 63.7301,11.7121 63.1397,11.7121 C60.7979,11.7121 59.627,13.4726 59.627,16.9936 C59.627,18.7833 59.932,20.077 60.542,20.8746 C61.1521,21.6527 62.018,22.0418 63.1397,22.0418 C63.7104,22.0418 64.222,21.9542 64.6747,21.7791 C65.147,21.5846 65.6685,21.2734 66.2392,20.8454 L67.9808,23.2965 C66.5048,24.4831 64.8223,25.0765 62.9331,25.0765 C61.4374,25.0765 60.1386,24.7555 59.0366,24.1135 C57.9346,23.4521 57.0884,22.5184 56.498,21.3123 C55.9076,20.1062 55.6124,18.6861 55.6124,17.052 C55.6124,15.4179 55.9076,13.9784 56.498,12.7334 C57.0884,11.46894 57.9346,10.49628 59.0366,9.81541 C60.1386,9.1151 61.4276,8.76494 62.9035,8.76494 Z" id="path4_fill" fill="#FFFFFF"></path>
                <path d="M83.2353,16.556 C83.2353,16.7505 83.2058,17.2563 83.1467,18.0733 L73.3465,18.0733 C73.4843,19.5712 73.8778,20.6411 74.5272,21.2831 C75.1963,21.925 76.0819,22.246 77.1839,22.246 C77.8727,22.246 78.5221,22.139 79.1322,21.925 C79.7422,21.6916 80.3916,21.3414 81.0804,20.8746 L82.6449,23.0047 C80.9131,24.3859 78.9846,25.0765 76.8592,25.0765 C74.4781,25.0765 72.638,24.3567 71.3392,22.9171 C70.0601,21.4776 69.4205,19.5128 69.4205,17.0228 C69.4205,15.4471 69.696,14.0368 70.247,12.7918 C70.798,11.5273 71.5951,10.54491 72.638,9.84459 C73.681,9.12482 74.9208,8.76494 76.3574,8.76494 C78.5418,8.76494 80.2342,9.45553 81.4346,10.83671 C82.6351,12.19843 83.2353,14.1048 83.2353,16.556 Z M79.4864,15.4763 C79.4864,12.7723 78.4729,11.4203 76.446,11.4203 C75.521,11.4203 74.7929,11.76074 74.2616,12.4416 C73.7499,13.103 73.4449,14.1729 73.3465,15.6514 L79.4864,15.6514 L79.4864,15.4763 Z" id="path5_fill" fill="#FFFFFF"></path>
                <path d="M95.0356,8.76494 C96.4329,8.76494 97.5152,9.18318 98.2827,10.01967 C99.0699,10.83671 99.4635,11.98445 99.4635,13.4629 L99.4635,24.6388 L95.6851,24.6388 L95.6851,14.0465 C95.6851,13.1322 95.5178,12.49023 95.1832,12.12062 C94.8684,11.75101 94.3961,11.5662 93.7663,11.5662 C93.1169,11.5662 92.5265,11.77046 91.9952,12.17898 C91.4835,12.56804 90.9817,13.1419 90.4897,13.9006 L90.4897,24.6388 L86.7113,24.6388 L86.7113,9.20264 L89.9879,9.20264 L90.2831,11.24523 C91.5819,9.5917 93.1661,8.76494 95.0356,8.76494 Z" id="path6_fill" fill="#FFFFFF"></path>
                <path d="M112.808,23.9093 C112.257,24.2983 111.637,24.5901 110.948,24.7847 C110.279,24.9792 109.59,25.0765 108.882,25.0765 C107.347,25.057 106.176,24.629 105.369,23.7925 C104.582,22.9366 104.188,21.6819 104.188,20.0283 L104.188,11.88718 L101.738,11.88718 L101.738,9.20264 L104.188,9.20264 L104.188,5.7886 L107.966,5.3509 L107.966,9.20264 L111.597,9.20264 L111.214,11.88718 L107.966,11.88718 L107.966,19.9408 C107.966,20.6995 108.094,21.2442 108.35,21.5749 C108.626,21.9056 109.049,22.0709 109.62,22.0709 C110.21,22.0709 110.83,21.8764 111.479,21.4873 L112.808,23.9093 Z" id="path7_fill" fill="#FFFFFF"></path>
                <path d="M122.637,8.79412 C123.208,8.79412 123.729,8.86221 124.202,8.99838 L123.552,12.6167 C123.08,12.49996 122.618,12.4416 122.165,12.4416 C121.24,12.4416 120.512,12.7723 119.981,13.4337 C119.449,14.0757 119.026,15.0775 118.711,16.4392 L118.711,24.6388 L114.933,24.6388 L114.933,9.20264 L118.209,9.20264 L118.564,12.23734 C118.938,11.12851 119.479,10.28229 120.187,9.69869 C120.896,9.09564 121.712,8.79412 122.637,8.79412 Z" id="path8_fill" fill="#FFFFFF"></path>
                <path d="M137.515,20.5536 C137.515,21.1566 137.604,21.6041 137.781,21.8959 C137.978,22.1682 138.283,22.3822 138.696,22.5378 L137.899,25.0181 C137.014,24.9403 136.285,24.736 135.715,24.4053 C135.164,24.0552 134.741,23.5105 134.445,22.7712 C133.914,23.5494 133.245,24.133 132.438,24.522 C131.651,24.8917 130.765,25.0765 129.782,25.0765 C128.227,25.0765 126.997,24.6388 126.092,23.7634 C125.186,22.888 124.734,21.7402 124.734,20.3201 C124.734,18.6472 125.344,17.373 126.564,16.4976 C127.804,15.6027 129.565,15.1553 131.848,15.1553 L133.796,15.1553 L133.796,14.2799 C133.796,13.2878 133.56,12.59722 133.088,12.20816 C132.635,11.79964 131.897,11.59538 130.874,11.59538 C129.732,11.59538 128.355,11.86773 126.741,12.41242 L125.856,9.87377 C127.804,9.13455 129.693,8.76494 131.523,8.76494 C135.518,8.76494 137.515,10.53518 137.515,14.0757 L137.515,20.5536 Z M130.785,22.3627 C132.064,22.3627 133.068,21.7305 133.796,20.466 L133.796,17.3438 L132.232,17.3438 C129.791,17.3438 128.571,18.2387 128.571,20.0283 C128.571,20.7676 128.758,21.3414 129.132,21.75 C129.506,22.1585 130.057,22.3627 130.785,22.3627 Z" id="path9_fill" fill="#FFFFFF"></path>
                <path d="M152.34446,1.288052 L160.7233,6.05668 C163.7488,7.77853 163.8601,12.0544 160.9284,13.9279 L152.54949,19.2822 C149.44465,21.2663 145.35,19.0631 145.35,15.4084 L145.350001,5.28553 C145.350001,1.73718 149.23364,-0.4824 152.34446,1.288052 Z" id="path10_fill" fill="url(#radialGradient-1)"></path>
            </g>
        </g>
    </g>
</svg>