<?xml version="1.0" encoding="UTF-8" standalone="no"?>
<svg width="15px" height="15px" viewBox="0 0 15 15" version="1.1" xmlns="http://www.w3.org/2000/svg" xmlns:xlink="http://www.w3.org/1999/xlink">
    <!-- Generator: Sketch 41.2 (35397) - http://www.bohemiancoding.com/sketch -->
    <title>Group</title>
    <desc>Created with Sketch.</desc>
    <defs></defs>
    <g id="Page-1" stroke="none" stroke-width="1" fill="none" fill-rule="evenodd">
        <g id="Group" fill="#FFFFFF">
            <path d="M15,7.5 C15,3.35786437 11.6421356,0 7.5,0 C3.35786437,0 0,3.35786437 0,7.5 C0,11.6421356 3.35786437,15 7.5,15 C11.6421356,15 15,11.6421356 15,7.5 L15,7.5 Z M0.9375,7.5 C0.9375,3.87563133 3.87563133,0.9375 7.5,0.9375 C11.1243687,0.9375 14.0625,3.87563133 14.0625,7.5 C14.0625,11.1243687 11.1243687,14.0625 7.5,14.0625 C3.87563133,14.0625 0.9375,11.1243687 0.9375,7.5 L0.9375,7.5 Z" id="Shape"></path>
            <path d="M6.03935736,9.9417866 C5.03421025,10.3986099 4.59086565,9.96181021 5.05256899,8.95867254 L5.87678907,7.16789884 C6.10902232,6.66332827 6.71108763,6.06765132 7.20468103,5.84502101 L8.95744712,5.05445361 C9.96470332,4.60014089 10.4162122,5.04975957 9.9660124,6.05849908 L9.198594,7.77801385 C8.97351066,8.28234646 8.38533961,8.87557522 7.88783027,9.10168525 L6.03935736,9.9417866 Z M7.47573069,8.14179625 C7.83541156,8.14179625 8.12699056,7.84911637 8.12699056,7.48807744 C8.12699056,7.1270385 7.83541156,6.83435862 7.47573069,6.83435862 C7.11604975,6.83435862 6.82447081,7.1270385 6.82447081,7.48807744 C6.82447081,7.84911637 7.11604975,8.14179625 7.47573069,8.14179625 Z" id="Shape"></path>
        </g>
    </g>
</svg>