<?xml version="1.0" encoding="UTF-8" standalone="no"?>
<svg width="18px" height="15px" viewBox="0 0 18 15" version="1.1" xmlns="http://www.w3.org/2000/svg" xmlns:xlink="http://www.w3.org/1999/xlink">
    <!-- Generator: Sketch 41.1 (35376) - http://www.bohemiancoding.com/sketch -->
    <title>Shape</title>
    <desc>Created with Sketch.</desc>
    <defs></defs>
    <g id="Page-1" stroke="none" stroke-width="1" fill="none" fill-rule="evenodd">
        <path d="M1.43181818,0 C0.645666136,0 0,0.645668182 0,1.43181818 L0,13.2954586 C0,14.0816086 0.645666136,14.7272768 1.43181818,14.7272768 L16.5681818,14.7272768 C17.3543339,14.7272768 18,14.0816086 18,13.2954586 L18,4.29545455 C18,3.50930455 17.3543339,2.86363636 16.5681818,2.86363636 L8.19460227,2.86363636 C7.60659136,2.11491818 7.14081477,1.08458182 6.51988636,0.453825 C6.27884386,0.212727273 5.93870523,2.32541259e-14 5.52272727,2.32541259e-14 L1.43181818,0 Z M1.43181818,0.818181818 L5.52272727,0.818181818 C5.67334227,0.818181818 5.79222818,0.876702273 5.94460227,1.02910909 C6.55596,1.79613409 7.07040205,2.64430227 7.63849432,3.49643864 C7.7118075,3.60869318 7.84321977,3.68059091 7.97727273,3.68181818 L16.5681818,3.68181818 C16.9152157,3.68181818 17.1818182,3.94842273 17.1818182,4.29545455 L17.1818182,13.2954586 C17.1818182,13.6424905 16.9152157,13.909095 16.5681818,13.909095 L1.43181818,13.909095 C1.08478432,13.909095 0.818181818,13.6424905 0.818181818,13.2954586 L0.818181818,1.43181818 C0.818181818,1.08478636 1.08478227,0.818181818 1.43181818,0.818181818 L1.43181818,0.818181818 Z" id="Shape" fill="#FFFFFF"></path>
    </g>
</svg>