<?xml version="1.0" encoding="UTF-8" standalone="no"?>
<svg width="22px" height="12px" viewBox="0 0 22 12" version="1.1" xmlns="http://www.w3.org/2000/svg" xmlns:xlink="http://www.w3.org/1999/xlink">
    <!-- Generator: Sketch 41.2 (35397) - http://www.bohemiancoding.com/sketch -->
    <title>Combined Shape</title>
    <desc>Created with Sketch.</desc>
    <defs></defs>
    <g id="Page-1" stroke="none" stroke-width="1" fill="none" fill-rule="evenodd">
        <path d="M17.5132857,11.7892857 C17.6348572,11.9190292 17.807828,12 18,12 C18.192172,12 18.3651428,11.9190292 18.4867143,11.7892857 L21.138,9.138 C21.3986667,8.87733333 21.3986667,8.456 21.138,8.19533333 C20.8773333,7.93466667 20.456,7.93466667 20.1953333,8.19533333 L18.6666667,9.724 L18.6666667,0.666666667 C18.6666667,0.298666667 18.3686667,0 18,0 C17.6313333,0 17.3333333,0.298666667 17.3333333,0.666666667 L17.3333333,9.724 L15.8046667,8.19533333 C15.544,7.93466667 15.1226667,7.93466667 14.862,8.19533333 C14.6013333,8.456 14.6013333,8.87733333 14.862,9.138 L17.5132857,11.7892857 Z M13.394,2.676 L0.666666667,2.676 C0.298666667,2.676 0,2.37733333 0,2.00933333 C0,1.64133333 0.298666667,1.34266667 0.666666667,1.34266667 L13.394,1.34266667 C13.7626667,1.34266667 14.0606667,1.64133333 14.0606667,2.00933333 C14.0606667,2.37733333 13.7626667,2.676 13.394,2.676 Z M11.3333333,6.66666667 L2.66666667,6.66666667 C2.29866667,6.66666667 2,6.368 2,6 C2,5.632 2.29866667,5.33333333 2.66666667,5.33333333 L11.3333333,5.33333333 C11.702,5.33333333 12,5.632 12,6 C12,6.368 11.702,6.66666667 11.3333333,6.66666667 Z M9.33333333,10.6666667 L4.66666667,10.6666667 C4.29866667,10.6666667 4,10.3686667 4,10 C4,9.63133333 4.29866667,9.33333333 4.66666667,9.33333333 L9.33333333,9.33333333 C9.70133333,9.33333333 10,9.63133333 10,10 C10,10.3686667 9.70133333,10.6666667 9.33333333,10.6666667 Z" id="Combined-Shape" fill="#FFFFFF"></path>
    </g>
</svg>